<svg width="64" height="64" viewbox="0 0 64 64" class="style-ftns26"><circle cx="32" cy="32" r="19" class="circle"></circle><path fill-rule="evenodd" clip-rule="evenodd" d="M30.5865 41.1378C31.3272 41.8221 32.6722 41.8319 33.4129 41.1574L33.4718 41.1037C38.5554 36.4713 41.8819 33.4401 41.746 29.6619C41.6875 28.0001 40.8396 26.4068 39.4654 25.4684C37.3743 24.0305 34.8841 24.4462 33.1038 25.7333C32.6936 26.0299 32.321 26.3728 31.9997 26.75C31.6783 26.3727 31.3056 26.03 30.8952 25.7338C29.115 24.4491 26.625 24.0385 24.5341 25.4684C23.1599 26.4068 22.312 28.0001 22.2535 29.6619C22.1268 33.4546 25.4697 36.4947 30.5865 41.1378ZM23.7526 29.7133C23.7953 28.5111 24.4144 27.3665 25.38 26.7071L25.3808 26.7065C27.1492 25.4973 29.4926 26.12 30.8579 27.7227L31.543 28.527C31.7826 28.8082 32.2169 28.8082 32.4565 28.527L33.1416 27.7227C34.5102 26.1161 36.8515 25.4914 38.6155 26.7044L38.6195 26.7071C39.5855 27.3667 40.2046 28.512 40.2469 29.7146L40.247 29.7158C40.2969 31.1036 39.73 32.4647 38.3804 34.1435C37.0091 35.8492 34.9938 37.6874 32.403 40.0483C32.3636 40.0842 32.2314 40.1587 32.0103 40.1572C31.7898 40.1556 31.6512 40.0792 31.6044 40.036L31.5995 40.0315L31.5945 40.027C29.0048 37.677 26.9919 35.8432 25.6225 34.1408C24.2752 32.4657 23.7066 31.1034 23.7526 29.7133Z" class="heart-stroke"></path><path d="M33.4129 41.1574C32.6722 41.8319 31.3272 41.8221 30.5865 41.1378C25.4697 36.4947 22.1268 33.4546 22.2535 29.6619C22.312 28.0001 23.1599 26.4068 24.5341 25.4684C27.1071 23.7089 30.2844 24.7363 31.9997 26.75C33.7151 24.7363 36.8924 23.6991 39.4654 25.4684C40.8396 26.4068 41.6875 28.0001 41.746 29.6619C41.8824 33.4546 38.5297 36.4947 33.4129 41.1574Z" class="heart-fill"></path><g class="particles" style="--rotate:30deg"><circle cx="29" cy="19" r="3" fill="var(--color-yellow60)" class="particle" style="--x:26;--y:7;--duration:150ms"></circle><circle cx="35" cy="23" r="2" fill="var(--color-blue60)" class="particle" style="--x:37;--y:10;--duration:200ms"></circle></g><g class="particles" style="--rotate:102deg"><circle cx="29" cy="19" r="3" fill="var(--color-yellow60)" class="particle" style="--x:26;--y:7;--duration:150ms"></circle><circle cx="35" cy="23" r="2" fill="var(--color-blue60)" class="particle" style="--x:37;--y:10;--duration:200ms"></circle></g><g class="particles" style="--rotate:174deg"><circle cx="29" cy="19" r="3" fill="var(--color-yellow60)" class="particle" style="--x:26;--y:7;--duration:150ms"></circle><circle cx="35" cy="23" r="2" fill="var(--color-blue60)" class="particle" style="--x:37;--y:10;--duration:200ms"></circle></g><g class="particles" style="--rotate:246deg"><circle cx="29" cy="19" r="3" fill="var(--color-yellow60)" class="particle" style="--x:26;--y:7;--duration:150ms"></circle><circle cx="35" cy="23" r="2" fill="var(--color-blue60)" class="particle" style="--x:37;--y:10;--duration:200ms"></circle></g><g class="particles" style="--rotate:318deg"><circle cx="29" cy="19" r="3" fill="var(--color-yellow60)" class="particle" style="--x:26;--y:7;--duration:150ms"></circle><circle cx="35" cy="23" r="2" fill="var(--color-blue60)" class="particle" style="--x:37;--y:10;--duration:200ms"></circle></g></svg>