<svg viewbox="0 0 318 451" fill="currentColor" class="SendBadgeCta_icon__mcUsF"><path d="M175.12,41.58V13.2a8.87,8.87,0,0,0-17.73.6V41.58a8.87,8.87,0,1,0,17.73.6Z"></path><path d="M75,44.52,94.62,64.17c.1.11.21.22.32.32a8.87,8.87,0,0,0,12.18-12.86L87.52,32A8.87,8.87,0,0,0,75,44.52Z"></path><path d="M253.56,44.52A8.87,8.87,0,0,0,241,32L221.37,51.63,221,52A8.87,8.87,0,0,0,233.9,64.17h0Z"></path><path d="M18.06,262.07a28.08,28.08,0,0,0-.7,39.08l22.55,27.78,12.58,15.5,32.78,40.4A24.72,24.72,0,0,0,104.53,394H203a35.83,35.83,0,0,1,15.13,3.36,8,8,0,0,0,9-1.68h0a8.09,8.09,0,0,0-2.2-13h0a46,46,0,0,0-19.6-4.4H104.57a9.06,9.06,0,0,1-7.08-3.37L72.76,344.4,58.37,326.68l-.72-.89L39.91,303.93,29.32,290.42h0a12.35,12.35,0,0,1,0-17.46,10.33,10.33,0,0,1,1.43-1.2,12.1,12.1,0,0,1,4.76-2.15h.17a12.73,12.73,0,0,1,2.06-.21H38a12.47,12.47,0,0,1,3.53.52l.71.23c.23.08.45.18.68.27h0A12.55,12.55,0,0,1,46.76,273l11,10.68,14,13.53,21.88,21.13a23.65,23.65,0,0,0-.56,2.63,8.77,8.77,0,0,0-.21,1.6l-.06.84v3.51a3.31,3.31,0,0,1,0,.62,2.53,2.53,0,0,0,0,.55,1.79,1.79,0,0,0,.07.62c.07.18,0,.33.07.54s.08.42.1.62l.09.54.12.61.12.53a2.93,2.93,0,0,0,.15.6c0,.18.09.33.14.53s.12.43.17.6l.16.52c.06.19.13.42.19.59s.12.34.19.51l.21.58.21.51.24.57c.07.17.15.31.23.5s.17.37.26.55l.25.51.28.53.28.5.3.52.3.49c.11.16.21.33.32.5l.33.48.33.49c.12.16.24.31.35.47l.36.47.37.47c.13.14.24.28.37.44s.33.37.41.46.15.18.23.26l.15.17.43.45.4.4.46.44.4.38.5.43.41.36.53.42.42.33.56.41.42.31.61.4.41.27.66.4.4.24.72.39.38.2.8.4.33.16.94.4.23.1c.79.33,1.61.62,2.45.88a26.76,26.76,0,0,0,5.83,1.08,21.47,21.47,0,0,0,2.78.11H184.7l.48-.07.28-.06.43-.11.28-.09.42-.15.25-.11a2.93,2.93,0,0,0,.44-.21l.21-.1c.2-.11.4-.23.59-.36l.17-.12.38-.29c.2-.16.4-.34.59-.52h0c.19-.19.38-.4.56-.61l.11-.15c.13-.17.25-.35.37-.52l.15-.23.27-.49.13-.26.21-.49a.45.45,0,0,1,.1-.3,1.7,1.7,0,0,0,.16-.51,1.06,1.06,0,0,1,.07-.3c.05-.2.08-.39.11-.58v-.26a6.31,6.31,0,0,0,0-.87,10.7,10.7,0,0,0-.11-1.27,7.87,7.87,0,0,0-7.76-6.6H120.77a12.35,12.35,0,0,1-12.3-13.57,5.65,5.65,0,0,1,.16-1.07v-.23c.07-.33.15-.67.25-1h0c.11-.36.23-.68.36-1a.94.94,0,0,1,.1-.23c.12-.29.26-.58.41-.86v-.07c.16-.3.34-.58.52-.86l.16-.24.15-.22c.12-.17.25-.33.37-.48l.08-.11c.21-.25.43-.5.66-.74l.19-.19c.22-.22.44-.43.68-.63l.06-.06c.26-.22.52-.42.8-.62l.21-.15c.26-.18.53-.36.8-.52h.06c.29-.17.59-.32.9-.47l.24-.12c.29-.13.59-.26.89-.37h.07c.35-.12.67-.22,1-.31l.27-.08c.36-.08.67-.16,1-.22h.07a4.73,4.73,0,0,1,1-.14h65.95a46.51,46.51,0,0,0,12.79-1.77,43.8,43.8,0,0,0,4.85-1.75h.09c.76-.34,1.51-.69,2.25-1.07a62.92,62.92,0,0,1,29.3-7.17h3.1l1.45.08.93.08a11.73,11.73,0,0,1,1.33.12l1,.11.94.11.38.06.87.13,1.32.21.91.17,1.28.25.91.2,1.26.3.91.22,1.24.34.9.25,1.28.39.83.27c.59.19,1.17.39,1.75.6l1.25.47c.31.12.63.23.94.36H260c.89.35,1.75.72,2.62,1.1l.44.21c.71.32,1.4.66,2.09,1l.68.32c.67.36,1.34.71,2,1.08l.47.26c.81.41,1.62.92,2.41,1.41l.42.27c.64.39,1.28.81,1.91,1.23l.67.46c.58.4,1.16.81,1.73,1.23l.54.39c.73.55,1.46,1.11,2.16,1.69l.38.31c.58.47,1.15,1,1.72,1.47l.63.56c.48.46,1,.92,1.48,1.38l.55.53c.23.24,1.5,1.75,3,3.55a5.2,5.2,0,0,0,.51.55,8,8,0,0,0,11.31,0h0a8,8,0,0,0,.36-11q-1.08-1.23-2.22-2.43c-1.68-1.73-3.43-3.39-5.25-5V207.16h7a8.88,8.88,0,0,0,8.87-8.86V152.38a8.88,8.88,0,0,0-8.87-8.87H284.85c5.62-15,1.68-32.58-10.89-43.16a49.14,49.14,0,0,0-28.23-11.56c-20.31-1.46-44.09,12.21-58.31,24.38-1,.89-2.13,1.82-3.13,2.76h-38c-1-.94-2.14-1.87-3.14-2.76-14.22-12.16-38-25.84-58.33-24.38a49,49,0,0,0-28.24,11.56C44,110.93,40.12,128.51,45.69,143.51H32.91a8.88,8.88,0,0,0-8.86,8.87V198.3a8.85,8.85,0,0,0,8.86,8.86h7v46.77a20.38,20.38,0,0,0-2.06-.08A27.76,27.76,0,0,0,18.06,262ZM196,207.17h76.88v87.5c-1.46-.72-2.92-1.42-4.39-2.08a83.5,83.5,0,0,0-14.76-4.9,81.38,81.38,0,0,0-18.58-2.15,78.77,78.77,0,0,0-36.42,8.92,25.37,25.37,0,0,1-2.68,1.18Zm.05-45.91h92.74v28.17h-92.7Zm0-32c.9-.86,1.9-1.71,2.9-2.57,12-10.28,30.55-20.22,43.76-20.22.6,0,1.17.06,1.75.06a31.32,31.32,0,0,1,18.08,7.4c8.65,7.25,9.65,20.71,2.08,29.58H196.06Zm-43.71,4.42h26V297.39h-26Zm-17.78,9.86H66C58.4,134.68,59.41,121.22,68,114a31.34,31.34,0,0,1,18.09-7.47c13.28-1,33,9.41,45.5,20.16,1,.86,2,1.72,2.92,2.57ZM57.65,207.16h76.88v90.2H121.27A29,29,0,0,0,102,304.8l-19.1-18.45L57.69,262Zm-15.86-45.9h92.74v28.17H41.83Z"></path></svg>